<?xml version="1.0" standalone="no"?>
<!DOCTYPE svg PUBLIC "-//W3C//DTD SVG 20010904//EN"
 "http://www.w3.org/TR/2001/REC-SVG-20010904/DTD/svg10.dtd">
<svg version="1.0" xmlns="http://www.w3.org/2000/svg"
 width="1024.000000pt" height="1024.000000pt" viewBox="0 0 1024.000000 1024.000000"
 preserveAspectRatio="xMidYMid meet">
<metadata>
Created by potrace 1.12, written by Peter Selinger 2001-2015
</metadata>
<g transform="translate(0.000000,1024.000000) scale(0.100000,-0.100000)"
fill="#000000" stroke="none">
<path d="M4755 9844 c-912 -124 -1490 -721 -1667 -1724 -20 -115 -22 -168 -27
-644 l-6 -519 -70 -14 c-195 -39 -476 -163 -650 -288 -417 -299 -695 -780
-733 -1273 -4 -48 -4 -424 -1 -837 5 -731 6 -753 28 -850 105 -466 362 -845
750 -1106 120 -81 200 -123 338 -178 221 -87 424 -121 723 -121 l200 0 0 -875
c0 -481 4 -875 8 -875 5 0 458 394 1007 874 l999 875 716 4 c763 4 739 3 950
57 625 160 1139 700 1270 1335 38 182 42 292 37 1030 -4 669 -5 716 -25 820
-124 651 -601 1184 -1228 1371 -44 14 -109 30 -145 38 l-64 13 -6 534 c-6 553
-9 586 -55 784 -51 218 -111 390 -199 566 -284 569 -756 902 -1413 999 -166
24 -573 27 -737 4z m522 -815 c366 -32 650 -177 813 -414 45 -65 105 -191 129
-270 54 -173 55 -181 58 -792 l4 -573 -1171 0 -1171 0 4 568 c3 541 4 571 26
665 29 130 44 175 96 282 191 393 627 585 1212 534z m5 -3289 c236 -73 418
-317 418 -560 0 -71 -27 -178 -64 -255 -35 -76 -131 -188 -192 -226 l-34 -21
-2 -481 -3 -482 -292 -3 -293 -2 0 479 0 479 -48 36 c-159 116 -245 285 -245
476 1 201 96 377 264 489 55 37 178 85 244 95 55 8 183 -4 247 -24z"/>
</g>
</svg>
