<?xml version="1.0" standalone="no"?>
<!DOCTYPE svg PUBLIC "-//W3C//DTD SVG 20010904//EN"
 "http://www.w3.org/TR/2001/REC-SVG-20010904/DTD/svg10.dtd">
<svg version="1.0" xmlns="http://www.w3.org/2000/svg"
 width="64.000000pt" height="64.000000pt" viewBox="0 0 64.000000 64.000000"
 preserveAspectRatio="xMidYMid meet">
<metadata>
Created by potrace 1.13, written by Peter Selinger 2001-2015
</metadata>
<g transform="translate(0.000000,64.000000) scale(0.100000,-0.100000)"
fill="#000000" stroke="none">
<path d="M273 609 c-44 -13 -76 -61 -81 -124 -4 -45 -8 -53 -33 -64 -41 -18
-59 -59 -59 -133 0 -85 23 -124 84 -140 45 -12 45 -12 48 -60 l3 -48 58 50
c51 44 64 50 103 50 101 0 144 45 144 150 0 72 -18 113 -59 131 -25 11 -29 19
-34 66 -7 67 -36 109 -85 123 -43 11 -46 11 -89 -1z m99 -66 c12 -11 18 -30
18 -60 l0 -43 -70 0 -70 0 0 44 c0 27 6 51 16 60 20 21 83 20 106 -1z"/>
</g>
</svg>
